# xmcd
#
# Track frame offsets: 
#        150
#        12986
#        25361
#        36459
#        46158
#        57232
#        68743
#        78115
#        87367
#        97111
#        109704
#        122636
#        134764
#        145376
#        155551
#        164582
#        176538
#        189525
#        200413
#        213658
#        225614
#        236173
#        248893
#        263410
#        277787
#        287024
#        301621
#        309949
#        320510
#        334946
#        345807
#
# Disc length: 4777 seconds
#
# Revision: 1
# Processed by: cddbd v1.5.2PL0 Copyright (c) Steve Scherf et al.
# Submitted via: ExactAudioCopyFreeDBPlugin 1.0
#
DISCID=b912a71f
DTITLE=Jim Reeves - Welcome To My World - CD 10
DYEAR=2001
DGENRE=Country
TTITLE0=Where Does A Broken Heart Go
TTITLE1=Pride Goes Before A Fall
TTITLE2=Little Ole You
TTITLE3=I'm Gonna Change Everything
TTITLE4=Welcome To My World
TTITLE5=Tahiti
TTITLE6=Bolandse Nooientjie
TTITLE7=Ek Verlang Na Jou
TTITLE8=Die Ou Kalahar
TTITLE9=I Love You Because
TTITLE10=Roses Are Red (My Love)
TTITLE11=Just Out Of Reach
TTITLE12=Memories Are Made Of This
TTITLE13=Stand In
TTITLE14=After Loving You
TTITLE15=The One That Got Away
TTITLE16=I'd Fight The World
TTITLE17=Waltzing On Top Of The World
TTITLE18=When You Are Gone
TTITLE19=Once Upon A Time
TTITLE20=O Little Town Of Bethlehem
TTITLE21=An Old Christmas Card
TTITLE22=Silent Night
TTITLE23=Mary's Little Boy Child
TTITLE24=Oh Come All Ye Faithful (Adeste Fideles)
TTITLE25=White Christmas
TTITLE26=Jingle Bells
TTITLE27=The Merry Christmas Polka
TTITLE28=Blue Christmas
TTITLE29=Senor Santa Claus
TTITLE30=C-H-R-I-S-T-M-A-S
EXTD=
EXTT0=
EXTT1=
EXTT2=
EXTT3=
EXTT4=
EXTT5=
EXTT6=
EXTT7=
EXTT8=
EXTT9=
EXTT10=
EXTT11=
EXTT12=
EXTT13=
EXTT14=
EXTT15=
EXTT16=
EXTT17=
EXTT18=
EXTT19=
EXTT20=
EXTT21=
EXTT22=
EXTT23=
EXTT24=
EXTT25=
EXTT26=
EXTT27=
EXTT28=
EXTT29=
EXTT30=
PLAYORDER=
